<svg width="18" height="18" viewBox="0 0 18 18" fill="none" xmlns="http://www.w3.org/2000/svg">
<path d="M13.5 11.25L13.5 16.5M16.125 13.875L10.875 13.875" stroke="#777777" stroke-width="1.5" stroke-linecap="round"/>
<path d="M5.25 12H8.25M5.25 8.25H11.25" stroke="#777777" stroke-width="1.5" stroke-linecap="round"/>
<path d="M4.875 2.625C3.70815 2.66001 3.01246 2.78988 2.53108 3.27171C1.87207 3.93133 1.87207 4.99298 1.87207 7.11627L1.87207 11.9958C1.87207 14.1191 1.87207 15.1808 2.53108 15.8404C3.19009 16.5 4.25075 16.5 6.37207 16.5H8.625M11.6191 2.625C12.786 2.66001 13.4817 2.78988 13.9631 3.27171C14.6221 3.93133 14.6221 4.99298 14.6221 7.11627V9" stroke="#777777" stroke-width="1.5" stroke-linecap="round"/>
<path d="M4.87207 2.8125C4.87207 2.08763 5.4597 1.5 6.18457 1.5H10.3096C11.0344 1.5 11.6221 2.08763 11.6221 2.8125C11.6221 3.53737 11.0344 4.125 10.3096 4.125H6.18457C5.4597 4.125 4.87207 3.53737 4.87207 2.8125Z" stroke="#777777" stroke-width="1.5" stroke-linejoin="round"/>
</svg>
